G04 PROTEUS GERBER X2 FILE*
%TF.GenerationSoftware,Labcenter,Proteus,8.6-SP3-Build23669*%
%TF.CreationDate,2022-08-23T09:37:36+00:00*%
%TF.FileFunction,NonPlated,1,2,NPTH*%
%TF.FilePolarity,Positive*%
%TF.Part,Single*%
%FSLAX45Y45*%
%MOMM*%
G01*
%TA.AperFunction,Profile*%
%ADD29C,0.203200*%
%TD.AperFunction*%
D29*
X+0Y+0D02*
X+9000000Y+0D01*
X+9000000Y+4500000D01*
X+0Y+4500000D01*
X+0Y+0D01*
X+375000Y+250000D02*
X+374579Y+260248D01*
X+371160Y+280745D01*
X+364014Y+301242D01*
X+352365Y+321739D01*
X+334541Y+342075D01*
X+314044Y+357347D01*
X+293547Y+367169D01*
X+273050Y+372856D01*
X+252553Y+374974D01*
X+250000Y+375000D01*
X+125000Y+250000D02*
X+125421Y+260248D01*
X+128840Y+280745D01*
X+135986Y+301242D01*
X+147635Y+321739D01*
X+165459Y+342075D01*
X+185956Y+357347D01*
X+206453Y+367169D01*
X+226950Y+372856D01*
X+247447Y+374974D01*
X+250000Y+375000D01*
X+125000Y+250000D02*
X+125421Y+239752D01*
X+128840Y+219255D01*
X+135986Y+198758D01*
X+147635Y+178261D01*
X+165459Y+157925D01*
X+185956Y+142653D01*
X+206453Y+132831D01*
X+226950Y+127144D01*
X+247447Y+125026D01*
X+250000Y+125000D01*
X+375000Y+250000D02*
X+374579Y+239752D01*
X+371160Y+219255D01*
X+364014Y+198758D01*
X+352365Y+178261D01*
X+334541Y+157925D01*
X+314044Y+142653D01*
X+293547Y+132831D01*
X+273050Y+127144D01*
X+252553Y+125026D01*
X+250000Y+125000D01*
X+8875000Y+250000D02*
X+8874579Y+260248D01*
X+8871160Y+280745D01*
X+8864014Y+301242D01*
X+8852365Y+321739D01*
X+8834541Y+342075D01*
X+8814044Y+357347D01*
X+8793547Y+367169D01*
X+8773050Y+372856D01*
X+8752553Y+374974D01*
X+8750000Y+375000D01*
X+8625000Y+250000D02*
X+8625421Y+260248D01*
X+8628840Y+280745D01*
X+8635986Y+301242D01*
X+8647635Y+321739D01*
X+8665459Y+342075D01*
X+8685956Y+357347D01*
X+8706453Y+367169D01*
X+8726950Y+372856D01*
X+8747447Y+374974D01*
X+8750000Y+375000D01*
X+8625000Y+250000D02*
X+8625421Y+239752D01*
X+8628840Y+219255D01*
X+8635986Y+198758D01*
X+8647635Y+178261D01*
X+8665459Y+157925D01*
X+8685956Y+142653D01*
X+8706453Y+132831D01*
X+8726950Y+127144D01*
X+8747447Y+125026D01*
X+8750000Y+125000D01*
X+8875000Y+250000D02*
X+8874579Y+239752D01*
X+8871160Y+219255D01*
X+8864014Y+198758D01*
X+8852365Y+178261D01*
X+8834541Y+157925D01*
X+8814044Y+142653D01*
X+8793547Y+132831D01*
X+8773050Y+127144D01*
X+8752553Y+125026D01*
X+8750000Y+125000D01*
X+8875000Y+4250000D02*
X+8874579Y+4260248D01*
X+8871160Y+4280745D01*
X+8864014Y+4301242D01*
X+8852365Y+4321739D01*
X+8834541Y+4342075D01*
X+8814044Y+4357347D01*
X+8793547Y+4367169D01*
X+8773050Y+4372856D01*
X+8752553Y+4374974D01*
X+8750000Y+4375000D01*
X+8625000Y+4250000D02*
X+8625421Y+4260248D01*
X+8628840Y+4280745D01*
X+8635986Y+4301242D01*
X+8647635Y+4321739D01*
X+8665459Y+4342075D01*
X+8685956Y+4357347D01*
X+8706453Y+4367169D01*
X+8726950Y+4372856D01*
X+8747447Y+4374974D01*
X+8750000Y+4375000D01*
X+8625000Y+4250000D02*
X+8625421Y+4239752D01*
X+8628840Y+4219255D01*
X+8635986Y+4198758D01*
X+8647635Y+4178261D01*
X+8665459Y+4157925D01*
X+8685956Y+4142653D01*
X+8706453Y+4132831D01*
X+8726950Y+4127144D01*
X+8747447Y+4125026D01*
X+8750000Y+4125000D01*
X+8875000Y+4250000D02*
X+8874579Y+4239752D01*
X+8871160Y+4219255D01*
X+8864014Y+4198758D01*
X+8852365Y+4178261D01*
X+8834541Y+4157925D01*
X+8814044Y+4142653D01*
X+8793547Y+4132831D01*
X+8773050Y+4127144D01*
X+8752553Y+4125026D01*
X+8750000Y+4125000D01*
X+375000Y+4250000D02*
X+374579Y+4260248D01*
X+371160Y+4280745D01*
X+364014Y+4301242D01*
X+352365Y+4321739D01*
X+334541Y+4342075D01*
X+314044Y+4357347D01*
X+293547Y+4367169D01*
X+273050Y+4372856D01*
X+252553Y+4374974D01*
X+250000Y+4375000D01*
X+125000Y+4250000D02*
X+125421Y+4260248D01*
X+128840Y+4280745D01*
X+135986Y+4301242D01*
X+147635Y+4321739D01*
X+165459Y+4342075D01*
X+185956Y+4357347D01*
X+206453Y+4367169D01*
X+226950Y+4372856D01*
X+247447Y+4374974D01*
X+250000Y+4375000D01*
X+125000Y+4250000D02*
X+125421Y+4239752D01*
X+128840Y+4219255D01*
X+135986Y+4198758D01*
X+147635Y+4178261D01*
X+165459Y+4157925D01*
X+185956Y+4142653D01*
X+206453Y+4132831D01*
X+226950Y+4127144D01*
X+247447Y+4125026D01*
X+250000Y+4125000D01*
X+375000Y+4250000D02*
X+374579Y+4239752D01*
X+371160Y+4219255D01*
X+364014Y+4198758D01*
X+352365Y+4178261D01*
X+334541Y+4157925D01*
X+314044Y+4142653D01*
X+293547Y+4132831D01*
X+273050Y+4127144D01*
X+252553Y+4125026D01*
X+250000Y+4125000D01*
M02*
