M48
; DRILL file {KiCad 9.0.5} date 2025-10-16T19:18:43+0900
; FORMAT={-:-/ absolute / metric / decimal}
; #@! TF.CreationDate,2025-10-16T19:18:43+09:00
; #@! TF.GenerationSoftware,Kicad,Pcbnew,9.0.5
; #@! TF.FileFunction,Plated,1,2,PTH
FMAT,2
METRIC
; #@! TA.AperFunction,Plated,PTH,ViaDrill
T1C0.300
; #@! TA.AperFunction,Plated,PTH,ComponentDrill
T2C0.700
; #@! TA.AperFunction,Plated,PTH,ComponentDrill
T3C0.750
; #@! TA.AperFunction,Plated,PTH,ComponentDrill
T4C0.800
%
G90
G05
T1
X11.192Y43.894
X11.43Y21.59
X13.891Y7.302
X15.24Y41.91
X15.319Y6.429
X15.954Y33.02
X17.462Y40.64
X17.78Y5.08
X18.098Y19.05
X18.415Y8.198
X18.891Y20.479
X18.971Y25.003
X19.169Y37.267
X19.209Y36.433
X21.114Y42.069
X21.272Y29.21
X21.907Y26.591
X21.907Y24.209
X22.146Y39.688
X24.051Y11.43
X24.924Y16.51
T2
X10.16Y27.94
X10.16Y25.4
X10.16Y22.86
X10.16Y15.24
X12.7Y45.879
X12.7Y40.799
X15.24Y27.94
X15.24Y25.4
X15.24Y22.86
X15.24Y15.24
X22.86Y17.78
X22.86Y12.7
T3
X11.43Y17.78
X12.7Y17.78
X13.97Y17.78
T4
X5.08Y53.34
X5.08Y50.8
X5.08Y48.26
X5.08Y45.72
X5.08Y43.18
X5.08Y40.64
X5.08Y38.1
X5.08Y35.56
X5.08Y33.02
X5.08Y30.48
X5.08Y27.94
X5.08Y25.4
X5.08Y22.86
X5.08Y20.32
X5.08Y17.78
X5.08Y15.24
X5.08Y12.7
X5.08Y10.16
X5.08Y7.62
X5.08Y5.08
X7.62Y53.34
X7.62Y50.8
X7.62Y48.26
X7.62Y45.72
X7.62Y43.18
X7.62Y40.64
X7.62Y38.1
X7.62Y35.56
X7.62Y33.02
X7.62Y30.48
X7.62Y27.94
X7.62Y25.4
X7.62Y22.86
X7.62Y20.32
X7.62Y17.78
X7.62Y15.24
X7.62Y12.7
X7.62Y10.16
X7.62Y7.62
X7.62Y5.08
X10.16Y50.8
X10.16Y12.7
X12.7Y50.8
X12.7Y12.7
X15.24Y45.72
X15.24Y12.7
X17.78Y45.72
X17.78Y12.7
X20.32Y45.72
X20.32Y43.18
X20.32Y40.64
X20.32Y38.1
X20.32Y35.56
X20.32Y33.02
X20.32Y30.48
X20.32Y27.94
X20.32Y25.4
X20.32Y22.86
X20.32Y20.32
X20.32Y17.78
X20.32Y15.24
X20.32Y12.7
X20.32Y10.16
X20.32Y7.62
X22.86Y45.72
X22.86Y7.62
X25.4Y53.34
X25.4Y50.8
X25.4Y48.26
X25.4Y45.72
X25.4Y43.18
X25.4Y40.64
X25.4Y38.1
X25.4Y35.56
X25.4Y33.02
X25.4Y30.48
X25.4Y27.94
X25.4Y25.4
X25.4Y22.86
X25.4Y20.32
X25.4Y17.78
X25.4Y15.24
X25.4Y12.7
X25.4Y10.16
X25.4Y7.62
X25.4Y5.08
M30
