;TYPE=PLATED
;Layer: PTH_Through
;EasyEDA Pro v2.2.43.4, 2025-12-13 17:12:12
;Gerber Generator version 0.3
M48
METRIC,LZ,0000.00000
;Hole size 1 = 0.30500 METRIC
T01C0.30500
;Hole size 2 = 0.60000 METRIC
T02C0.60000
;Hole size 3 = 1.10002 METRIC
T03C1.10002
;Hole size 4 = 1.20000 METRIC
T04C1.20000
%
G05
G90
T01
X12.36846Y12.59353
X12.50981Y18.14176
X19.37584Y13.79095
X19.1362Y16.72409
X19.89699Y6.57896
X9.94631Y10.71279
X8.71786Y10.73635
X14.79591Y8.08718
X10.02685Y8.03412
X9.40421Y8.05432
X8.59983Y8.04759
X4.61298Y10.93981
X4.79046Y11.83101
X7.77366Y10.82281
X8.255Y15.64602
X21.717Y13.18285
X25.146Y13.18285
X29.464Y14.986
X31.496Y16.383
X31.877Y11.43
X34.0995Y9.9695
X27.36109Y8.39543
X28.43783Y8.001
X20.85007Y18.94507
X18.923Y18.796
X16.637Y18.796
X14.986Y17.907
X27.06847Y9.73795
X27.53516Y9.27126
X25.654Y6.858
X29.845Y6.223
X30.42959Y10.36359
X29.718Y14.224
X30.734Y13.462
X34.21212Y17.5841
X31.242Y12.954
X33.655Y14.57907
X35.179Y11.95576
X35.55096Y6.43451
X37.27631Y12.446
X38.50255Y12.446
X40.02642Y12.319
X40.9575Y13.19596
X40.9575Y14.5611
X40.9575Y15.66828
X40.76202Y16.64198
X39.41132Y17.018
X38.37556Y17.018
X37.31202Y17.018
X35.38942Y17.52325
X35.179Y10.668
X35.052Y9.398
X37.97431Y12.0317
X39.26055Y11.79071
X39.64711Y10.88291
X39.64711Y9.87692
X39.64711Y9.1626
X39.64711Y8.31137
X39.243Y7.62
X38.0087Y7.55602
X36.83008Y7.62
X45.085Y9.30893
X45.085Y9.96893
X45.085Y13.14653
X49.657Y12.446
X49.657Y9.906
X7.747Y10.16281
X19.177Y11.811
X20.574Y10.0334
X43.307Y19.05
X45.466Y19.05
X45.974Y14.10432
X34.671Y14.351
X42.672Y18.415
X26.543Y10.2866
X42.291Y9.779
X44.704Y15.367
X49.53Y19.812
X3.937Y12.827
X7.874Y11.811
X8.001Y12.81529
X24.50285Y4.68389
X23.59894Y4.02389
X20.574Y12.5726
X21.717Y11.5566
X14.224Y12.065
X31.115Y11.938
X21.844Y8.80975
X27.89519Y10.92094
X5.715Y14.605
X2.413Y13.41859
X14.224Y6.985
X3.556Y8.89
X34.1384Y10.795
X4.699Y8.382
X29.337Y11.176
X29.21Y9.017
X6.39712Y7.112
X12.573Y6.48035
X13.462Y6.38275
X13.335Y9.779
X14.23861Y9.53961
X18.669Y10.2362
X18.796Y5.461
X20.574Y8.128
X21.59Y8.128
X15.621Y10.5287
X17.43114Y10.75779
X35.179Y13.081
T02
X6.84704Y16.89793G85X5.94704Y16.89793
X6.84703Y8.24791G85X5.947Y8.24791
X2.49697Y16.89799G85X1.89697Y16.89799
X2.49697Y8.24801G85X1.89697Y8.24801
T03
X17.526Y13.86302
X14.986Y13.86302
X12.446Y13.86302
X17.526Y16.70502
X14.986Y16.70502
X12.446Y16.70502
X48.006Y7.366
X48.006Y9.906
X48.006Y12.446
X48.006Y14.986
T04
X50.927Y20.828
X48.387Y20.828
X45.847Y20.828
X43.307Y20.828
X40.767Y20.828
X38.227Y20.828
X35.687Y20.828
X33.147Y20.828
X30.607Y20.828
X28.067Y20.828
X25.527Y20.828
X22.987Y20.828
X20.447Y20.828
X17.907Y20.828
X15.367Y20.828
X12.827Y20.828
X10.287Y20.828
X7.747Y20.828
X5.207Y20.828
X2.667Y20.828
X2.41295Y2.35402
X4.95295Y2.35402
X7.49295Y2.35402
X10.03295Y2.35402
X12.57295Y2.35402
X15.11295Y2.35402
X17.65295Y2.35402
X20.19295Y2.35402
X22.73295Y2.35402
X25.27295Y2.35402
X27.81295Y2.35402
X30.35295Y2.35402
X32.89295Y2.35402
X35.43295Y2.35402
X37.97295Y2.35402
X40.51295Y2.35402
X43.05295Y2.35402
X45.59295Y2.35402
X48.13295Y2.35402
X50.67295Y2.35402
M30